<svg width="128" height="128" viewBox="0 0 128 128" xmlns="http://www.w3.org/2000/svg" xmlns:svg="http://www.w3.org/2000/svg">
 <g>
  <title>Folder</title>
  <path stroke="#ECC849" stroke-width="2" d="m51.42215,13.95108l-37.73358,0c-6.91782,0 -12.51496,5.6305 -12.51496,12.51223l-0.06289,75.07338c0,6.88173 5.66004,12.51223 12.57786,12.51223l100.62284,0c6.91782,0 12.57786,-5.6305 12.57786,-12.51223l0,-62.56115c0,-6.88173 -5.66004,-12.51223 -12.57786,-12.51223l-50.31141,0l-12.57786,-12.51223z" fill="#FFE793" id="folder"/>
 </g>
 <g>
  <title>Star</title>
  <path d="m64,91.44541l22.46321,13.55789l-5.96111,-25.55281l19.84614,-17.19271l-26.13438,-2.21724l-10.21386,-24.09888l-10.21386,24.09888l-26.13438,2.21724l19.84614,17.19271l-5.96111,25.55281l22.46321,-13.55789l0,0z" fill="#4285F4" id="star"/>
 </g>
</svg>