<svg width="32" height="32" viewBox="0 0 32 32" xmlns="http://www.w3.org/2000/svg" xmlns:svg="http://www.w3.org/2000/svg">
 <g>
  <title>Folder</title>
  <path stroke="#ECC849" id="folder" fill="#FFE793" d="m12.89535,3.64618l-9.31396,0c-1.70756,0 -3.08913,1.3898 -3.08913,3.08846l-0.01552,18.53073c0,1.69865 1.3971,3.08846 3.10465,3.08846l24.83723,0c1.70756,0 3.10465,-1.3898 3.10465,-3.08846l0,-15.44228c0,-1.69865 -1.3971,-3.08846 -3.10465,-3.08846l-12.41861,0l-3.10465,-3.08846z"/>
 </g>
 <g display="inline">
  <title>Star</title>
  <path id="star" fill="#4285F4" d="m16,22.54868l5.38551,3.25048l-1.42916,-6.12623l4.75807,-4.12192l-6.26566,-0.53158l-2.44875,-5.77765l-2.44875,5.77765l-6.26566,0.53158l4.75807,4.12192l-1.42916,6.12623l5.38551,-3.25048l0,0z"/>
 </g>
</svg>