<?xml version="1.0"?>
<svg width="128" height="128" viewBox="0 0 128 128" xmlns="http://www.w3.org/2000/svg" xmlns:svg="http://www.w3.org/2000/svg">
 <g>
  <title>Folder</title>
  <path id="folder" fill="#FFE793" d="m54.280077,25.719921l-28.710058,0c-5.263511,0 -9.522169,4.306509 -9.522169,9.570019l-0.04785,57.420116c0,5.263511 4.306509,9.570019 9.570019,9.570019l76.560154,0c5.263511,0 9.570019,-4.306509 9.570019,-9.570019l0,-47.850097c0,-5.263511 -4.306509,-9.570019 -9.570019,-9.570019l-38.280077,0l-9.570019,-9.570019z"/>
 </g>
 <g>
  <title>Star</title>
  <path id="star" fill="#4285F4" d="m64.000003,86.673812l19.163487,11.566313l-5.085457,-21.799243l16.930849,-14.667201l-22.295385,-1.891542l-8.713496,-20.558888l-8.713496,20.558888l-22.295385,1.891542l16.930849,14.667201l-5.085457,21.799243l19.163487,-11.566313l0.000004,0z"/>
 </g>
 <g>
  <title>padding</title>
  <rect fill="none" stroke-width="null" stroke-dasharray="null" stroke-linejoin="null" stroke-linecap="null" x="0" y="0" width="16" height="128" id="svg_7"/>
  <rect fill="none" stroke-width="null" stroke-dasharray="null" stroke-linejoin="null" stroke-linecap="null" x="112" y="0" width="16" height="128" id="svg_8"/>
  <rect fill="none" stroke-width="null" stroke-dasharray="null" stroke-linejoin="null" stroke-linecap="null" x="0" y="0" width="128" height="16" id="svg_9"/>
  <rect fill="none" stroke-width="null" stroke-dasharray="null" stroke-linejoin="null" stroke-linecap="null" x="0" y="112" width="128" height="16" id="svg_10"/>
 </g>
</svg>