<?xml version="1.0"?>
<svg width="128" height="128" viewBox="0 0 128 128" xmlns="http://www.w3.org/2000/svg" xmlns:svg="http://www.w3.org/2000/svg">
 <g>
  <title>Folder</title>
  <path id="folder" fill="#FFE793" d="m51.16573,13.10124l-38.3743,0c-7.03529,0 -12.72747,5.72611 -12.72747,12.72469l-0.06396,76.34814c0,6.99858 5.75615,12.72469 12.79143,12.72469l102.33144,0c7.03529,0 12.79143,-5.72611 12.79143,-12.72469l0,-63.62345c0,-6.99858 -5.75615,-12.72469 -12.79143,-12.72469l-51.16571,0l-12.79143,-12.72469z"/>
 </g>
 <g>
  <title>Star</title>
  <path id="star" fill="#4285F4" d="m64,91.44541l22.46321,13.55789l-5.96111,-25.55281l19.84614,-17.19271l-26.13438,-2.21724l-10.21386,-24.09888l-10.21386,24.09888l-26.13438,2.21724l19.84614,17.19271l-5.96111,25.55281l22.46321,-13.55789l0,0z"/>
 </g>
</svg>