<svg width="16" height="16" viewBox="0 0 16 16" xmlns="http://www.w3.org/2000/svg" xmlns:svg="http://www.w3.org/2000/svg">
 <g>
  <title>Folder</title>
  <path stroke="#ECC849" id="folder" fill="#FFE793" d="m6.49853,2.11522l-4.4989,0c-0.8248,0 -1.49213,0.67131 -1.49213,1.49181l-0.0075,8.95085c0,0.82049 0.67483,1.49181 1.49963,1.49181l11.99706,0c0.8248,0 1.49963,-0.67131 1.49963,-1.49181l0,-7.45904c0,-0.82049 -0.67483,-1.49181 -1.49963,-1.49181l-5.99853,0l-1.49963,-1.49181z"/>
 </g>
 <g>
  <title>Star</title>
  <path id="star" fill="#4285F4" d="m8,11.01732l2.37224,1.43179l-0.62953,-2.69852l2.09586,-1.81564l-2.75993,-0.23415l-1.07864,-2.54497l-1.07864,2.54497l-2.75993,0.23415l2.09586,1.81564l-0.62953,2.69852l2.37224,-1.43179l0,0z"/>
 </g>
</svg>