<svg width="24" height="24" viewBox="0 0 24 24" xmlns="http://www.w3.org/2000/svg" xmlns:svg="http://www.w3.org/2000/svg">
 <g>
  <title>Folder</title>
  <path stroke="#ECC849" id="folder" fill="#FFE793" d="m9.70141,2.85361l-6.89577,0c-1.26422,0 -2.2871,1.02897 -2.2871,2.2866l-0.01149,13.71958c0,1.25763 1.03437,2.2866 2.29859,2.2866l18.38872,0c1.26422,0 2.29859,-1.02897 2.29859,-2.2866l0,-11.43298c0,-1.25763 -1.03437,-2.2866 -2.29859,-2.2866l-9.19436,0l-2.29859,-2.2866z"/>
 </g>
 <g>
  <title>Star</title>
  <path id="star" fill="#4285F4" d="m12,16.88815l3.96887,2.39545l-1.05323,-4.51476l3.50648,-3.03767l-4.61751,-0.39175l-1.80462,-4.25787l-1.80462,4.25787l-4.61751,0.39175l3.50648,3.03767l-1.05323,4.51476l3.96887,-2.39545l0,0z"/>
 </g>
</svg>